<svg xmlns="http://www.w3.org/2000/svg" width="1200" height="720" viewBox="0 0 1200 720" fill="none">
  <rect width="1200" height="720" fill="#0F172A"/>
  <rect x="90" y="95" width="1020" height="530" rx="26" fill="#111827" stroke="#1F2937"/>
  <circle cx="215" cy="180" r="34" fill="#38BDF8" fill-opacity="0.6"/>
  <rect x="285" y="151" width="300" height="22" rx="11" fill="#334155"/>
  <rect x="285" y="188" width="210" height="16" rx="8" fill="#1E293B"/>
  <rect x="160" y="265" width="300" height="250" rx="16" fill="#0B1220" stroke="#1E293B"/>
  <rect x="490" y="265" width="550" height="250" rx="16" fill="#0B1220" stroke="#1E293B"/>
  <path d="M210 450L260 390L312 410L360 330L412 360" stroke="#38BDF8" stroke-width="8" stroke-linecap="round" stroke-linejoin="round"/>
  <rect x="540" y="320" width="90" height="140" rx="10" fill="#155E75"/>
  <rect x="650" y="360" width="90" height="100" rx="10" fill="#0EA5E9"/>
  <rect x="760" y="300" width="90" height="160" rx="10" fill="#38BDF8"/>
  <rect x="870" y="345" width="90" height="115" rx="10" fill="#7DD3FC"/>
</svg>
